<?xml version="1.0" encoding="UTF-8"?>
<svg id="Layer_1" data-name="Layer 1" xmlns="http://www.w3.org/2000/svg" viewBox="0 0 352 162">
  <defs>
    <style>
      .cls-1, .cls-2 {
        fill: #325545;
      }

      .cls-2 {
        fill-rule: evenodd;
      }
    </style>
  </defs>
  <g>
    <path class="cls-2" d="M83.23,36.01c0-2.34,2.67-3.68,4.54-2.27l23.98,17.95c.72,.54,1.14,1.38,1.14,2.27v30.8c0,.9-.43,1.74-1.15,2.28l-23.98,17.8c-1.87,1.39-4.53,.05-4.53-2.28V36.01Zm13.38,15.38c-1.87-1.4-4.54-.07-4.54,2.27v31.34c0,2.33,2.66,3.67,4.53,2.28l6.31-4.69c.72-.54,1.15-1.38,1.15-2.28v-21.93c0-.89-.42-1.74-1.14-2.27l-6.31-4.72Z"/>
    <path class="cls-1" d="M43.09,53.88c0-.9,.42-1.74,1.14-2.28l29.03-21.64c1.87-1.4,4.54-.06,4.54,2.28v4.14c0,.9-.43,1.75-1.15,2.28l-8,5.91s0,0,0,0c0,0,0,0,0,0l-15.57,11.45c-.73,.54-1.16,1.38-1.16,2.29v22.06c0,.9,.43,1.74,1.15,2.28l8.32,6.18s0,0,0,0c0,0,0,0,0,0l5.37,3.97,1.52,1.13s0,0,0,0,0,0,0,0l8.36,6.17c.72,.54,1.15,1.38,1.15,2.28v3.76c0,2.33-2.65,3.67-4.52,2.29l-29.03-21.38c-.73-.54-1.16-1.38-1.16-2.29v-30.9Z"/>
    <path class="cls-1" d="M77.72,87.89s.07,0,.07-.04c0-.03-.02-.05-.05-.05-.05,0-.06,.06-.03,.08Z"/>
  </g>
  <path class="cls-1" d="M158.28,87.28c-5.06,0-9.24-1.68-12.54-5.05-3.3-3.36-4.95-7.51-4.95-12.45s1.65-9.11,4.95-12.45c3.3-3.36,7.48-5.05,12.54-5.05,3.04,0,5.85,.72,8.41,2.16,2.6,1.41,4.61,3.33,6.06,5.77l-5.72,3.32c-.83-1.51-2.02-2.68-3.56-3.51-1.54-.87-3.27-1.3-5.19-1.3-3.27,0-5.91,1.03-7.93,3.08-1.99,2.05-2.98,4.71-2.98,7.98s.99,5.88,2.98,7.93c2.02,2.05,4.66,3.08,7.93,3.08,1.92,0,3.65-.42,5.19-1.25,1.57-.87,2.76-2.03,3.56-3.51l5.72,3.32c-1.44,2.43-3.44,4.37-6.01,5.81-2.56,1.41-5.38,2.11-8.46,2.11Zm38.86-3.65c-2.47,2.43-5.48,3.65-9.03,3.65s-6.57-1.22-9.03-3.65c-2.43-2.47-3.65-5.48-3.65-9.03s1.22-6.55,3.65-8.99c2.47-2.47,5.48-3.7,9.03-3.7s6.57,1.23,9.03,3.7c2.47,2.43,3.7,5.43,3.7,8.99s-1.23,6.57-3.7,9.03Zm-13.7-4.28c1.25,1.25,2.8,1.87,4.66,1.87s3.41-.62,4.66-1.87c1.25-1.25,1.87-2.84,1.87-4.76s-.62-3.51-1.87-4.76c-1.25-1.25-2.8-1.87-4.66-1.87s-3.41,.62-4.66,1.87c-1.22,1.25-1.83,2.84-1.83,4.76s.61,3.51,1.83,4.76Zm39.97-26.38h6.2v33.64h-6.2v-2.84c-1.83,2.34-4.42,3.51-7.79,3.51s-6.01-1.22-8.31-3.65c-2.27-2.47-3.41-5.48-3.41-9.03s1.14-6.55,3.41-8.99c2.31-2.47,5.08-3.7,8.31-3.7s5.96,1.17,7.79,3.51v-12.45Zm-11.44,26.53c1.28,1.25,2.88,1.87,4.81,1.87s3.51-.62,4.76-1.87c1.25-1.28,1.87-2.92,1.87-4.9s-.62-3.6-1.87-4.85c-1.25-1.28-2.84-1.92-4.76-1.92s-3.52,.64-4.81,1.92c-1.25,1.25-1.87,2.87-1.87,4.85s.62,3.62,1.87,4.9Zm26.38-19.8c-1.03,0-1.92-.37-2.69-1.11-.74-.77-1.11-1.67-1.11-2.69s.37-1.92,1.11-2.69c.77-.77,1.67-1.15,2.69-1.15s1.95,.38,2.69,1.15c.77,.77,1.15,1.67,1.15,2.69s-.38,1.92-1.15,2.69c-.74,.74-1.63,1.11-2.69,1.11Zm-3.08,26.91v-24.03h6.2v24.03h-6.2Zm27.73-24.03h6.2v24.03h-6.2v-2.69c-1.51,2.24-3.89,3.36-7.16,3.36-2.63,0-4.81-.88-6.54-2.64-1.7-1.76-2.55-4.2-2.55-7.3v-14.75h6.2v13.98c0,1.6,.43,2.84,1.3,3.7,.87,.83,2.02,1.25,3.46,1.25,1.6,0,2.88-.5,3.84-1.49,.96-.99,1.44-2.48,1.44-4.47v-12.98Zm38.45-.67c2.76,0,4.95,.9,6.58,2.69,1.67,1.79,2.5,4.2,2.5,7.21v14.8h-6.2v-14.37c0-1.44-.35-2.56-1.06-3.36-.7-.8-1.7-1.2-2.98-1.2-1.41,0-2.52,.46-3.32,1.39-.77,.93-1.15,2.27-1.15,4.04v13.5h-6.2v-14.37c0-1.44-.35-2.56-1.06-3.36s-1.7-1.2-2.98-1.2c-1.38,0-2.48,.46-3.32,1.39-.8,.93-1.2,2.27-1.2,4.04v13.5h-6.2v-24.03h6.2v2.55c1.44-2.15,3.67-3.22,6.68-3.22s5.13,1.15,6.54,3.46c1.6-2.31,3.99-3.46,7.16-3.46Z"/>
</svg>